<?xml version="1.0" standalone="no"?>
<!DOCTYPE svg PUBLIC "-//W3C//DTD SVG 20010904//EN"
 "http://www.w3.org/TR/2001/REC-SVG-20010904/DTD/svg10.dtd">
<svg version="1.0" xmlns="http://www.w3.org/2000/svg"
 width="680.000000pt" height="682.000000pt" viewBox="0 0 680.000000 682.000000"
 preserveAspectRatio="xMidYMid meet">

<g transform="translate(0.000000,682.000000) scale(0.100000,-0.100000)"
fill="#000000" stroke="none">
<path d="M1867 5653 c-32 -5 -45 -27 -132 -233 -31 -74 -77 -179 -101 -232
-24 -54 -44 -100 -44 -103 0 -3 -9 -24 -20 -48 -10 -23 -41 -96 -68 -162 -79
-190 -161 -387 -182 -430 -10 -22 -48 -112 -84 -200 -36 -88 -70 -167 -75
-176 -5 -8 -21 -47 -36 -85 -15 -38 -40 -97 -56 -132 -16 -35 -29 -66 -29 -70
0 -4 -6 -19 -14 -34 -18 -34 -127 -285 -196 -448 -69 -164 -80 -190 -210 -494
-61 -142 -116 -270 -121 -285 -6 -14 -19 -44 -29 -66 -10 -22 -25 -56 -33 -75
-8 -19 -49 -116 -92 -214 -43 -99 -86 -204 -96 -233 l-18 -53 497 0 497 0 66
138 c36 75 92 193 124 262 33 69 75 154 96 190 l36 64 656 -3 656 -3 3 329 c2
180 1 330 0 333 -2 3 -228 3 -503 2 -313 -2 -499 0 -499 6 0 10 69 169 130
297 41 87 106 238 165 380 46 113 63 152 80 190 31 65 78 173 102 230 13 33
34 80 45 105 12 25 34 77 49 115 33 85 78 187 122 279 l34 68 153 -303 c84
-167 156 -308 160 -314 12 -16 173 -330 323 -627 76 -153 143 -278 148 -278 4
0 9 242 9 538 l0 539 -41 89 c-23 49 -56 123 -74 164 -128 297 -408 911 -437
958 l-20 32 -456 -1 c-251 -1 -469 -4 -485 -6z"/>
<path d="M3725 5651 l-60 -6 -3 -1855 c-2 -1367 1 -1862 9 -1883 15 -36 39
-41 163 -35 l101 6 37 -62 c73 -123 463 -893 601 -1188 22 -46 38 -68 50 -68
16 0 17 103 17 2019 l0 2019 -35 12 c-45 15 -185 130 -246 201 -188 222 -270
431 -305 776 -6 51 -10 62 -28 67 -25 7 -218 5 -301 -3z"/>
<path d="M4826 4502 c-14 -27 -16 -83 -16 -412 0 -420 -4 -391 68 -494 19 -28
74 -102 121 -164 113 -149 244 -326 323 -436 90 -126 181 -249 443 -601 127
-170 247 -332 265 -360 47 -68 98 -124 131 -140 21 -11 87 -15 300 -15 270 -2
274 -1 291 20 17 21 18 92 18 1326 l0 1304 -314 0 c-172 0 -328 -3 -345 -6
l-31 -6 -2 -394 -3 -394 -76 102 c-41 57 -98 137 -126 178 -48 72 -166 236
-303 423 l-64 88 -226 -3 c-124 -1 -273 2 -332 6 l-106 9 -16 -31z"/>
</g>
</svg>
